<svg width="288" height="179" viewBox="0 0 288 179" fill="none" xmlns="http://www.w3.org/2000/svg">
<path d="M55.6331 84.1956C60.0041 86.1421 63.3734 88.9309 65.741 92.5733C68.1086 96.2158 69.2924 100.467 69.2924 105.322C69.2924 110.177 68.1086 114.428 65.741 118.071C63.3734 121.713 60.0041 124.508 55.6331 126.448C51.2622 128.395 46.1286 129.362 40.2437 129.362H31.0465V145.025H9.55591V81.2817H40.2437C46.1286 81.2817 51.2622 82.2549 55.6331 84.1956ZM45.4342 110.831C46.8912 109.528 47.6197 107.69 47.6197 105.322C47.6197 102.954 46.8912 101.122 45.4342 99.8127C43.9772 98.5094 41.7918 97.8549 38.8778 97.8549H31.0465V112.789H38.8778C41.7918 112.789 43.9772 112.135 45.4342 110.831Z" fill="#FEFFFF"/>
<path d="M125.842 83.5127C130.577 85.9714 134.265 89.5569 136.906 94.258C139.547 98.9647 140.867 104.565 140.867 111.059V145.025H119.376V132.185H99.1607V145.025H78.0344V111.059C78.0344 104.565 79.3548 98.9647 81.9956 94.258C84.6364 89.5569 88.3244 85.9714 93.0596 83.5127C97.7948 81.054 103.259 79.8247 109.451 79.8247C115.643 79.8247 121.107 81.054 125.842 83.5127ZM119.376 115.976V109.238C119.376 105.294 118.449 102.3 116.599 100.268C114.749 98.2363 112.302 97.2175 109.269 97.2175C106.235 97.2175 103.788 98.2363 101.938 100.268C100.083 102.3 99.1607 105.294 99.1607 109.238V115.976H119.376Z" fill="#FEFFFF"/>
<path d="M153.434 81.2817H174.924V128.361H203.7V145.025H153.434V81.2817Z" fill="#FEFFFF"/>
<path d="M226.602 147.074C221.462 146.778 217.137 145.924 213.62 144.507L217.717 127.883C221.013 129.089 224.604 129.892 228.497 130.284C232.39 130.677 236.038 130.575 239.447 129.971C242.378 129.453 244.421 128.805 245.577 128.013C246.732 127.222 247.21 126.26 247.011 125.128C246.777 123.813 245.781 122.971 244.023 122.601C242.264 122.231 239.43 121.992 235.526 121.878C230.506 121.719 226.277 121.337 222.84 120.74C219.408 120.142 216.26 118.725 213.398 116.488C210.535 114.252 208.708 110.86 207.905 106.312C207.211 102.368 207.684 98.5834 209.328 94.9637C210.973 91.344 213.825 88.2194 217.894 85.5957C221.963 82.9663 227.131 81.0995 233.408 79.9954C237.711 79.2385 242.025 78.9539 246.345 79.1474C250.665 79.3409 254.563 80.058 258.052 81.293L254.387 97.7525C247.682 95.732 241.576 95.2027 236.078 96.1703C230.58 97.1378 228.15 98.9249 228.611 101.554C228.833 102.812 229.806 103.609 231.53 103.95C233.255 104.292 236.032 104.497 239.868 104.559C244.808 104.611 249.026 104.935 252.52 105.521C256.015 106.107 259.202 107.502 262.087 109.704C264.973 111.907 266.817 115.282 267.619 119.824C268.314 123.768 267.835 127.535 266.191 131.127C264.54 134.718 261.689 137.837 257.625 140.495C253.562 143.152 248.394 145.036 242.116 146.14C236.914 147.057 231.747 147.37 226.607 147.074H226.602Z" fill="#FEFFFF"/>
<path d="M47.7279 35.8874C49.6402 36.7354 51.1142 37.9591 52.1501 39.5526C53.1859 41.1462 53.7038 43.0073 53.7038 45.1302C53.7038 47.2531 53.1859 49.1141 52.1501 50.7077C51.1142 52.3013 49.6402 53.5249 47.7279 54.3729C45.8156 55.221 43.5732 55.6478 40.995 55.6478H36.9712V62.5002H27.5691V34.6125H40.995C43.5732 34.6125 45.8156 35.0394 47.7279 35.8874ZM43.2659 47.5376C43.9033 46.9685 44.222 46.1603 44.222 45.1302C44.222 44.1 43.9033 43.2919 43.2659 42.717C42.6284 42.1479 41.6723 41.8633 40.3974 41.8633H36.9712V48.397H40.3974C41.6723 48.397 42.6284 48.1125 43.2659 47.5433V47.5376Z" fill="white"/>
<path d="M84.938 60.6676C83.4526 61.4359 81.6598 62.0449 79.5597 62.4774C77.4596 62.9157 75.3253 63.1376 73.1455 63.1376C70.0096 63.1376 67.3517 62.7734 65.1605 62.0449C62.9694 61.3164 61.3189 60.2919 60.1977 58.9772C59.0822 57.6625 58.5244 56.1543 58.5244 54.4583C58.5244 53.0525 58.9057 51.7891 59.6627 50.6735C60.4196 49.558 61.501 48.693 62.9124 48.084C61.8482 47.4978 61.0457 46.7351 60.505 45.7904C59.9586 44.8456 59.6855 43.8041 59.6855 42.6601C59.6855 41.095 60.1977 39.6551 61.2164 38.3404C62.2409 37.0257 63.806 35.9671 65.9175 35.176C68.029 34.3792 70.6242 33.9808 73.709 33.9808C75.5928 33.9808 77.4482 34.1458 79.2637 34.4816C81.085 34.8117 82.7127 35.2614 84.1469 35.8134L81.5972 42.6658C79.0987 41.6584 76.5888 41.1519 74.0675 41.1519C72.4227 41.1519 71.1934 41.3397 70.3795 41.7097C69.5713 42.0796 69.1616 42.5975 69.1616 43.2634C69.1616 43.8212 69.3608 44.248 69.7591 44.5383C70.1575 44.8285 70.8234 44.9765 71.7511 44.9765H79.9182V51.9086H71.1137C70.0779 51.9086 69.2982 52.0736 68.7859 52.4094C68.268 52.7395 68.0062 53.2119 68.0062 53.8266C68.0062 55.2608 69.8388 55.9779 73.5041 55.9779C74.9098 55.9779 76.4067 55.7844 77.9889 55.4031C79.5711 55.0161 80.9711 54.5038 82.1891 53.8664L84.938 60.6789V60.6676Z" fill="white"/>
<path d="M102.188 55.4884H99.6387V62.5002H90.2366V34.6125H103.662C106.241 34.6125 108.483 35.0394 110.395 35.8874C112.308 36.7354 113.782 37.9591 114.818 39.5526C115.853 41.1462 116.371 43.0073 116.371 45.1302C116.371 47.1222 115.922 48.8637 115.017 50.3491C114.112 51.8346 112.814 53.0184 111.112 53.8949L116.969 62.5002H106.929L102.188 55.4884ZM105.933 42.7227C105.296 42.1536 104.34 41.869 103.065 41.869H99.6387V48.4027H103.065C104.34 48.4027 105.296 48.1181 105.933 47.549C106.571 46.9799 106.889 46.1717 106.889 45.1416C106.889 44.1114 106.571 43.3033 105.933 42.7284V42.7227Z" fill="white"/>
<path d="M129.052 63.2913C126.804 63.1604 124.908 62.7905 123.372 62.1701L125.164 54.8965C126.604 55.4258 128.175 55.773 129.883 55.9438C131.584 56.1145 133.184 56.069 134.675 55.8071C135.955 55.5795 136.849 55.2949 137.355 54.9534C137.862 54.612 138.072 54.1851 137.981 53.69C137.879 53.1151 137.446 52.7452 136.672 52.5859C135.904 52.4265 134.663 52.3184 132.956 52.2728C130.759 52.2045 128.909 52.0338 127.407 51.7777C125.904 51.5159 124.527 50.8955 123.275 49.9166C122.023 48.9377 121.22 47.4522 120.873 45.466C120.571 43.7415 120.776 42.0853 121.493 40.5031C122.211 38.9209 123.463 37.555 125.238 36.4053C127.02 35.2557 129.279 34.4361 132.028 33.9523C133.912 33.6222 135.796 33.497 137.685 33.5824C139.575 33.6678 141.282 33.9808 142.808 34.5215L141.203 41.721C138.272 40.8389 135.597 40.6055 133.195 41.0324C130.793 41.4592 129.729 42.239 129.928 43.3886C130.025 43.9407 130.452 44.2879 131.203 44.4358C131.96 44.5838 133.172 44.6749 134.851 44.7033C137.014 44.7261 138.858 44.8684 140.389 45.1245C141.914 45.3806 143.314 45.9896 144.578 46.9571C145.841 47.9189 146.644 49.3987 146.996 51.385C147.298 53.1095 147.093 54.7599 146.37 56.3308C145.648 57.9016 144.401 59.2675 142.625 60.4285C140.85 61.5896 138.585 62.4148 135.841 62.8986C133.565 63.297 131.305 63.4336 129.057 63.3084L129.052 63.2913Z" fill="white"/>
<path d="M158.203 61.2652C155.813 60.0188 153.94 58.2829 152.586 56.069C151.231 53.855 150.554 51.3508 150.554 48.5564C150.554 45.7619 151.231 43.2634 152.586 41.0438C153.94 38.8241 155.813 37.094 158.203 35.8476C160.593 34.6012 163.291 33.9751 166.29 33.9751C169.29 33.9751 171.987 34.6012 174.378 35.8476C176.768 37.094 178.641 38.8298 179.995 41.0438C181.35 43.2634 182.027 45.7619 182.027 48.5564C182.027 51.3508 181.35 53.8493 179.995 56.069C178.641 58.2886 176.768 60.0188 174.378 61.2652C171.987 62.5116 169.29 63.1376 166.29 63.1376C163.291 63.1376 160.593 62.5116 158.203 61.2652ZM169.455 54.6746C170.399 54.1054 171.151 53.2916 171.708 52.2444C172.266 51.1971 172.545 49.9678 172.545 48.5621C172.545 47.1563 172.266 45.927 171.708 44.8797C171.151 43.8325 170.399 43.0187 169.455 42.4495C168.51 41.8804 167.457 41.5958 166.29 41.5958C165.124 41.5958 164.065 41.8804 163.126 42.4495C162.181 43.0187 161.43 43.8325 160.872 44.8797C160.314 45.927 160.035 47.1563 160.035 48.5621C160.035 49.9678 160.314 51.1971 160.872 52.2444C161.43 53.2916 162.181 54.1054 163.126 54.6746C164.071 55.2437 165.124 55.5283 166.29 55.5283C167.457 55.5283 168.516 55.2437 169.455 54.6746Z" fill="white"/>
<path d="M212.84 37.2021C214.661 39.3534 215.566 42.4097 215.566 46.3652V62.5002H206.164V46.6441C206.164 44.9423 205.8 43.6789 205.065 42.8422C204.337 42.0056 203.318 41.5844 202.021 41.5844C200.723 41.5844 199.664 42.0341 198.856 42.939C198.048 43.8439 197.638 45.1814 197.638 46.9628V62.5002H188.236V34.6125H197.359V37.6005C199.243 35.1817 201.85 33.9751 205.168 33.9751C208.486 33.9751 211.019 35.0508 212.834 37.2021H212.84Z" fill="white"/>
<path d="M243.334 35.5857C245.406 36.6614 247.022 38.2265 248.178 40.2868C249.333 42.3471 249.908 44.7944 249.908 47.6401V62.5002H240.506V56.8828H231.661V62.5002H222.418V47.6401C222.418 44.8001 222.999 42.3471 224.154 40.2868C225.31 38.2265 226.92 36.6614 228.992 35.5857C231.064 34.5101 233.454 33.9751 236.163 33.9751C238.872 33.9751 241.263 34.5158 243.334 35.5857ZM240.506 49.7914V46.8432C240.506 45.1188 240.102 43.8098 239.288 42.9162C238.479 42.0284 237.41 41.5844 236.083 41.5844C234.757 41.5844 233.687 42.0284 232.874 42.9162C232.065 43.8041 231.661 45.1131 231.661 46.8432V49.7914H240.506Z" fill="white"/>
<path d="M7.87704 52.3411C11.8627 52.3411 15.0937 49.1101 15.0937 45.1245C15.0937 41.1388 11.8627 37.9078 7.87704 37.9078C3.8914 37.9078 0.6604 41.1388 0.6604 45.1245C0.6604 49.1101 3.8914 52.3411 7.87704 52.3411Z" fill="#FFE98B"/>
<path d="M231.155 15.6091C235.14 15.6091 238.371 12.3781 238.371 8.39245C238.371 4.40681 235.14 1.17581 231.155 1.17581C227.169 1.17581 223.938 4.40681 223.938 8.39245C223.938 12.3781 227.169 15.6091 231.155 15.6091Z" fill="#E5FFEC"/>
<path d="M128.556 24.8291C132.542 24.8291 135.773 21.5981 135.773 17.6125C135.773 13.6268 132.542 10.3958 128.556 10.3958C124.571 10.3958 121.34 13.6268 121.34 17.6125C121.34 21.5981 124.571 24.8291 128.556 24.8291Z" fill="#FEC9D2"/>
<path d="M49.0028 15.0513C52.9884 15.0513 56.2194 11.8203 56.2194 7.83469C56.2194 3.84905 52.9884 0.618042 49.0028 0.618042C45.0171 0.618042 41.7861 3.84905 41.7861 7.83469C41.7861 11.8203 45.0171 15.0513 49.0028 15.0513Z" fill="#BBEEFF"/>
<path d="M63.8172 165.457C67.8029 165.457 71.0339 162.226 71.0339 158.24C71.0339 154.255 67.8029 151.024 63.8172 151.024C59.8316 151.024 56.6006 154.255 56.6006 158.24C56.6006 162.226 59.8316 165.457 63.8172 165.457Z" fill="#D7E5ED"/>
<path d="M195.504 90.5927C199.49 90.5927 202.721 87.3617 202.721 83.3761C202.721 79.3905 199.49 76.1595 195.504 76.1595C191.518 76.1595 188.287 79.3905 188.287 83.3761C188.287 87.3617 191.518 90.5927 195.504 90.5927Z" fill="#C5C6FF"/>
<path d="M198.264 178.382C202.25 178.382 205.481 175.151 205.481 171.165C205.481 167.18 202.25 163.949 198.264 163.949C194.279 163.949 191.048 167.18 191.048 171.165C191.048 175.151 194.279 178.382 198.264 178.382Z" fill="#FFE98B"/>
<path d="M279.935 76.1595C283.921 76.1595 287.152 72.9285 287.152 68.9428C287.152 64.9572 283.921 61.7262 279.935 61.7262C275.95 61.7262 272.719 64.9572 272.719 68.9428C272.719 72.9285 275.95 76.1595 279.935 76.1595Z" fill="#FFCC9A"/>
</svg>
